<?xml version="1.0" encoding="utf-8"?>
<!-- Generator: Adobe Illustrator 21.1.0, SVG Export Plug-In . SVG Version: 6.00 Build 0)  -->
<svg version="1.1" id="Layer_1" xmlns="http://www.w3.org/2000/svg" xmlns:xlink="http://www.w3.org/1999/xlink" x="0px" y="0px"
	 viewBox="0 0 10.8 8.6" style="enable-background:new 0 0 10.8 8.6;" xml:space="preserve">
<style type="text/css">
	.st0{fill:#996600;}
</style>
<g>
	<path class="st0" d="M10.7,4.5L10.3,5c0,0-0.1,0.1-0.1,0.1h0c-0.1,0-0.1,0-0.1,0L5.4,1.1L0.8,5c-0.1,0-0.1,0.1-0.2,0
		C0.5,5,0.5,5,0.5,5L0,4.5c0,0-0.1-0.1,0-0.2c0-0.1,0-0.1,0.1-0.1l4.8-4C5,0.1,5.2,0,5.4,0s0.4,0.1,0.5,0.2l1.6,1.4V0.2
		c0-0.1,0-0.1,0.1-0.2S7.7,0,7.8,0H9c0.1,0,0.1,0,0.2,0.1s0.1,0.1,0.1,0.2V3l1.5,1.2c0,0,0.1,0.1,0.1,0.1
		C10.8,4.4,10.8,4.4,10.7,4.5z M9.3,4.9v3.2c0,0.1,0,0.2-0.1,0.3C9,8.5,8.9,8.6,8.8,8.6H6.3V6H4.5v2.6H2c-0.1,0-0.2,0-0.3-0.1
		C1.6,8.4,1.5,8.3,1.5,8.2V4.9c0,0,0,0,0,0c0,0,0,0,0,0l3.9-3.2L9.3,4.9C9.3,4.9,9.3,4.9,9.3,4.9z"/>
</g>
</svg>
